<svg width="716" height="477" viewBox="0 0 716 477" fill="none" xmlns="http://www.w3.org/2000/svg">
<path d="M1.49999 307C-0.16668 217 60.7 29.9 317.5 1.49999C386.667 -3.33334 546.6 12.1 633 112.5C719.4 212.9 721.667 302.333 712 334.5C709 348.667 691.7 385.2 646.5 418C601.3 450.8 526.333 431.667 494.5 418C481 407.833 450.5 386.3 436.5 381.5C419 375.5 378 359 317.5 388.5C269.1 412.1 231.667 439.667 219 450.5C206.833 459.5 173.1 477.4 135.5 477C88.5 476.5 59.5 464 32 429.5C4.5 395 2.99997 368.5 1.49999 307Z" fill="#002350"/>
<path d="M35 173.5C18.5 196.5 -20 302.5 15 333C42.243 356.74 83.3705 343.908 102 333.833C145.2 301.299 213.333 262.722 242 247.5C269.833 231.833 348.2 207.2 439 234C552.5 267.5 591 330 645 361C688.2 385.8 708.667 353 713.5 333.5C720.833 297.333 714.9 203.1 632.5 115.5C550.1 27.9 444.833 4 402.5 3C356.167 -2.66667 244.4 -2.7 168 42.5C91.6 87.7 47.5 148.667 35 173.5Z" fill="#0C52BB"/>
<path d="M94 178.5C117.5 174 165.6 150.3 170 91.5C174.333 115.333 195.9 165.8 247.5 177C227.167 181 183.4 202.8 171 258C168.833 237.333 150.4 192.5 94 178.5Z" fill="white"/>
<path d="M276 135.5C278.637 125.445 289.849 103.882 313.699 97.2171C304.805 93.9122 285.749 81.602 274.5 56C272.667 66.1667 262.7 88.6 237.5 97C246.333 100.167 266.4 112.3 276 135.5Z" fill="white"/>
<path d="M611.5 270C621.833 283.5 646.7 309.8 663.5 307C680.3 304.2 654.5 263.833 639.5 244C627 227.333 598.7 196.2 585.5 205C572.3 213.8 597.333 252 611.5 270Z" fill="#38ACFD"/>
</svg>
